<svg width="490" height="468" viewBox="0 0 490 468" fill="none" xmlns="http://www.w3.org/2000/svg">
<path d="M265.79 168.188L244.675 187.673L223.934 167.709C219.418 163.372 213.018 160.98 205.9 160.98C198.363 160.98 191.649 163.702 186.983 168.636C176.156 180.18 176.216 198.604 187.147 210.567L245.123 274.48L302.845 210.717C313.866 198.649 313.896 180.106 302.965 168.457C293.664 158.976 276.647 158.184 265.79 168.188Z" fill="white"/>
<path d="M355.633 0.779007C321.463 0.779007 289.761 13.325 263.936 37.072L244.885 54.688L226.073 36.609C202.416 13.804 169.921 1.24301 134.585 1.24301C96.991 1.24301 62.926 15.449 38.626 41.275C-12.815 96.036 -12.875 182.978 38.447 239.175L245.349 467.222L451.533 239.445C503.004 183.084 502.84 95.843 450.935 40.573C425.767 14.911 391.926 0.779007 355.633 0.779007ZM325.501 231.323L245.154 320.089L164.508 231.188C142.885 207.516 142.945 170.819 164.673 147.656C175.2 136.485 189.825 130.354 205.901 130.354C220.945 130.354 234.882 135.767 245.125 145.592C267.81 124.776 304.118 125.898 325.053 147.252C347.109 170.745 347.214 207.561 325.501 231.323Z" fill="white"/>
</svg>
