<svg width="278" height="1582" viewBox="0 0 278 1582" fill="none" xmlns="http://www.w3.org/2000/svg">
<path d="M140.5 0C140.5 128 -29.7325 166.653 96.5 272.5C177 340 116 404 110 425.5C52.6114 631.142 -28 466 75.4991 466C150 466 127.217 647.188 160 727.14C172.001 748.433 206.179 759.996 217.5 742.5C228.5 725.5 207.5 716.101 188 719C135.434 726.814 106.499 766.5 62.0001 850.5C-75.9997 1084 53.2774 1055.53 142 990C230 925 277 969 277 997.5C256 1169 41.5947 1162.76 87.5 1289C89.5 1294.5 118.5 1362 147 1374.5C218 1408.5 203.5 1359 190.5 1354C107.857 1322.21 78.5 1524 106.499 1581" stroke="#FF0000" stroke-width="1.8737" stroke-miterlimit="10"/>
</svg>
